<svg width="800" height="800" viewBox="0 0 800 800" fill="none" xmlns="http://www.w3.org/2000/svg">
<path d="M316.667 66.6667C289.052 66.6667 266.667 89.0524 266.667 116.667V150C266.667 177.614 289.052 200 316.667 200H483.333C510.947 200 533.333 177.614 533.333 150V116.667C533.333 89.0524 510.947 66.6667 483.333 66.6667H316.667Z" fill="#FFDDDD"/>
<path fill-rule="evenodd" clip-rule="evenodd" d="M129.289 162.565C148.266 143.588 174.736 136.906 216.667 134.554V150C216.667 205.228 261.438 250 316.667 250H483.333C538.563 250 583.333 205.228 583.333 150V134.554C625.263 136.906 651.733 143.588 670.71 162.565C700 191.854 700 238.994 700 333.275V533.277C700 627.557 700 674.697 670.71 703.987C641.42 733.277 594.28 733.277 500 733.277H300C205.719 733.277 158.579 733.277 129.289 703.987C100 674.697 100 627.557 100 533.277V333.275C100 238.994 100 191.854 129.289 162.565ZM400 447.98L334.343 382.323C324.581 372.56 308.752 372.56 298.989 382.323C289.226 392.087 289.226 407.913 298.989 417.677L364.647 483.333L298.99 548.99C289.227 558.753 289.227 574.58 298.99 584.343C308.753 594.107 324.582 594.107 334.347 584.343L400 518.69L465.653 584.343C475.417 594.107 491.247 594.107 501.01 584.343C510.773 574.58 510.773 558.75 501.01 548.99L435.357 483.333L501.01 417.677C510.773 407.917 510.773 392.087 501.01 382.323C491.247 372.56 475.42 372.56 465.657 382.323L400 447.98Z" fill="#FFDDDD"/>
</svg>
