<svg width="800" height="800" viewBox="0 0 800 800" fill="none" xmlns="http://www.w3.org/2000/svg">
<path d="M316.667 66.6667C289.052 66.6667 266.667 89.0524 266.667 116.667V150C266.667 177.614 289.052 200 316.667 200H483.333C510.947 200 533.333 177.614 533.333 150V116.667C533.333 89.0524 510.947 66.6667 483.333 66.6667H316.667Z" fill="#CCCCCC"/>
<path fill-rule="evenodd" clip-rule="evenodd" d="M216.667 134.554C174.736 136.906 148.266 143.588 129.289 162.565C100 191.854 100 238.994 100 333.275V533.277C100 627.557 100 674.697 129.289 703.987C158.579 733.277 205.719 733.277 300 733.277H500C594.28 733.277 641.42 733.277 670.71 703.987C700 674.697 700 627.557 700 533.277V333.275C700 238.994 700 191.854 670.71 162.565C651.733 143.588 625.263 136.906 583.333 134.554V150C583.333 205.228 538.563 250 483.333 250H316.667C261.438 250 216.667 205.228 216.667 150V134.554Z" fill="#CCCCCC"/>
</svg>
